<?xml version="1.0" standalone="no"?>
<!DOCTYPE svg PUBLIC "-//W3C//DTD SVG 20010904//EN"
 "http://www.w3.org/TR/2001/REC-SVG-20010904/DTD/svg10.dtd">
<svg version="1.0" xmlns="http://www.w3.org/2000/svg"
 width="180.000000pt" height="110.000000pt" viewBox="0 0 180.000000 110.000000"
 preserveAspectRatio="xMidYMid meet">

<g transform="translate(0.000000,110.000000) scale(0.100000,-0.100000)"
fill="#000000" stroke="none">
<path d="M864 927 c-32 -32 -37 -77 -11 -99 46 -40 126 -5 112 50 -7 28 -49
72 -68 71 -7 0 -22 -10 -33 -22z m71 -31 c8 -13 13 -30 10 -39 -12 -29 -83
-32 -86 -3 -7 61 45 90 76 42z"/>
<path d="M79 767 c6 -6 764 -9 1624 -7 9 0 17 3 17 8 0 4 -371 7 -825 7 -453
0 -821 -3 -816 -8z"/>
<path d="M275 710 l-60 -7 68 -1 c43 -1 66 2 62 8 -3 6 -7 9 -8 8 -1 -1 -29
-4 -62 -8z"/>
<path d="M530 708 c0 -5 30 -7 68 -7 69 2 62 6 -20 11 -27 2 -48 0 -48 -4z"/>
<path d="M1143 708 c-2 -5 25 -8 61 -8 36 0 66 3 66 8 0 4 -27 7 -61 7 -33 0
-63 -3 -66 -7z"/>
<path d="M1510 710 l-65 -7 68 -1 c39 -1 67 2 67 8 0 6 -1 9 -2 8 -2 -1 -32
-4 -68 -8z"/>
<path d="M773 575 c-3 -10 -1 -26 5 -36 15 -23 16 -40 1 -19 -8 12 -10 11 -7
-5 2 -11 10 -20 18 -20 22 0 24 34 3 57 -17 21 -17 21 0 15 12 -5 17 -3 15 5
-7 19 -28 21 -35 3z"/>
<path d="M827 583 c-11 -10 -8 -83 3 -83 6 0 10 20 10 45 0 46 -2 50 -13 38z"/>
<path d="M917 583 c-13 -13 -7 -81 7 -86 16 -6 43 20 32 30 -4 4 -11 1 -16 -7
-7 -11 -10 -5 -10 20 0 25 3 31 10 20 5 -8 12 -11 16 -7 4 3 1 13 -6 22 -14
16 -23 19 -33 8z"/>
<path d="M977 583 c-13 -12 -8 -83 6 -83 8 0 12 16 13 45 0 43 -5 53 -19 38z"/>
<path d="M850 540 c0 -38 13 -54 23 -27 4 10 6 10 6 0 1 -7 6 -13 11 -13 6 0
10 18 10 40 0 38 -13 54 -23 28 -4 -10 -6 -10 -6 0 -1 6 -5 12 -11 12 -5 0
-10 -18 -10 -40z"/>
<path d="M774 412 c-15 -9 -3 -94 14 -100 9 -3 12 12 12 52 0 55 -4 63 -26 48z"/>
<path d="M817 414 c-13 -14 -8 -64 7 -64 8 0 18 -5 22 -11 4 -8 -1 -9 -16 -4
-16 5 -21 4 -18 -6 3 -8 16 -14 29 -14 22 0 24 4 24 50 0 43 -3 50 -20 53 -12
2 -24 0 -28 -4z m33 -29 c0 -8 -4 -15 -10 -15 -5 0 -10 7 -10 15 0 8 5 15 10
15 6 0 10 -7 10 -15z"/>
<path d="M887 414 c-13 -14 -8 -64 7 -64 8 0 18 -5 22 -11 4 -8 -1 -9 -16 -4
-16 5 -21 4 -18 -6 3 -8 16 -14 29 -14 22 0 24 4 24 50 0 43 -3 50 -20 53 -12
2 -24 0 -28 -4z m33 -29 c0 -8 -4 -15 -10 -15 -5 0 -10 7 -10 15 0 8 5 15 10
15 6 0 10 -7 10 -15z"/>
<path d="M950 405 c0 -10 6 -15 13 -12 9 3 13 -6 14 -31 1 -23 -2 -30 -7 -21
-11 18 -24 5 -16 -16 3 -10 15 -15 28 -13 20 3 23 9 23 53 0 47 -2 50 -27 53
-21 3 -28 -1 -28 -13z"/>
<path d="M382 224 c-23 -16 -30 -66 -13 -93 11 -18 61 -18 72 0 17 27 10 88
-10 99 -25 13 -22 13 -49 -6z m43 -49 c0 -33 -3 -40 -20 -40 -15 0 -21 8 -23
28 -5 39 5 59 25 55 14 -2 18 -13 18 -43z"/>
<path d="M1020 232 c-22 -7 -30 -23 -30 -64 0 -40 24 -63 54 -52 23 9 19 21
-6 20 -20 -1 -23 4 -23 39 0 35 3 40 23 39 12 0 22 3 22 7 0 10 -23 17 -40 11z"/>
<path d="M220 176 c0 -65 20 -77 21 -13 l1 42 15 -42 c8 -24 18 -43 23 -43 5
0 15 19 23 43 l15 42 1 -42 c1 -64 21 -52 21 13 0 47 -3 55 -17 52 -10 -2 -21
-18 -27 -36 -5 -17 -12 -32 -16 -32 -4 0 -11 15 -16 32 -6 18 -17 34 -27 36
-14 3 -17 -5 -17 -52z"/>
<path d="M470 175 l0 -55 34 0 c27 0 36 5 45 28 8 20 9 36 2 55 -9 22 -17 27
-46 27 l-35 0 0 -55z m61 21 c13 -27 -3 -66 -26 -66 -11 0 -15 12 -15 45 0 51
22 63 41 21z"/>
<path d="M580 175 c0 -53 1 -55 28 -54 26 0 26 1 5 9 -13 5 -23 14 -23 20 0 6
10 15 23 20 l22 9 -22 7 c-13 3 -23 10 -23 15 0 6 10 14 23 19 21 8 21 9 -5 9
-27 1 -28 -1 -28 -54z"/>
<path d="M658 226 c-5 -22 -3 -106 4 -106 4 0 8 9 8 20 0 11 6 20 14 20 7 0
16 -9 19 -20 3 -11 10 -20 17 -20 6 0 8 5 3 13 -4 6 -8 30 -8 52 0 36 -3 40
-27 43 -16 2 -29 1 -30 -2z m42 -26 c0 -11 -7 -20 -15 -20 -8 0 -15 9 -15 20
0 11 7 20 15 20 8 0 15 -9 15 -20z"/>
<path d="M752 173 l1 -58 6 45 6 45 19 -43 c27 -60 46 -55 46 13 0 30 -4 55
-10 55 -5 0 -10 -17 -10 -37 l-1 -38 -20 38 c-11 20 -24 37 -29 37 -6 0 -9
-26 -8 -57z"/>
<path d="M905 179 c-9 -28 -14 -53 -10 -57 4 -4 10 -1 12 6 6 14 39 16 48 2
17 -27 21 -4 7 45 -8 30 -21 55 -28 55 -7 0 -20 -23 -29 -51z m38 1 c3 -13 0
-20 -9 -20 -8 0 -14 9 -14 20 0 11 4 20 9 20 5 0 11 -9 14 -20z"/>
<path d="M1088 175 c-8 -30 -11 -55 -7 -55 5 0 9 5 9 10 0 15 48 12 53 -2 2
-7 7 -10 11 -7 10 9 -24 109 -38 109 -7 0 -20 -24 -28 -55z m41 -7 c1 -5 -6
-8 -15 -8 -11 0 -14 5 -10 16 3 9 6 21 7 27 0 12 17 -20 18 -35z"/>
<path d="M1180 175 c0 -54 1 -55 28 -55 36 0 52 17 52 55 0 38 -16 55 -52 55
-27 0 -28 -1 -28 -55z m58 6 c3 -31 -9 -50 -30 -51 -5 0 -8 21 -8 46 0 38 3
45 18 42 11 -2 18 -14 20 -37z"/>
<path d="M1280 175 l0 -55 33 1 c23 1 26 3 10 6 -26 5 -32 43 -7 43 8 0 12 5
9 10 -4 6 -11 8 -16 5 -5 -4 -9 3 -9 14 0 12 8 21 23 24 16 3 13 5 -10 6 l-33
1 0 -55z"/>
<path d="M1360 176 c0 -65 20 -77 21 -13 l1 42 11 -39 c16 -54 31 -55 48 -4
l14 43 3 -42 c5 -61 20 -53 18 9 -1 41 -5 53 -18 56 -12 2 -19 -6 -24 -32 -8
-45 -21 -46 -32 -4 -4 18 -16 34 -25 36 -14 3 -17 -5 -17 -52z"/>
<path d="M1505 200 c8 -16 15 -40 15 -55 0 -14 5 -25 10 -25 6 0 10 11 10 25
0 15 7 39 15 55 10 20 12 30 4 30 -6 0 -13 -9 -16 -20 -3 -11 -9 -20 -13 -20
-4 0 -10 9 -13 20 -3 11 -10 20 -16 20 -8 0 -6 -10 4 -30z"/>
</g>
</svg>
